<?xml version="1.0" standalone="no"?>
<!DOCTYPE svg PUBLIC "-//W3C//DTD SVG 20010904//EN"
 "http://www.w3.org/TR/2001/REC-SVG-20010904/DTD/svg10.dtd">
<svg version="1.0" xmlns="http://www.w3.org/2000/svg"
 width="1024.000000pt" height="1024.000000pt" viewBox="0 0 1024.000000 1024.000000"
 preserveAspectRatio="xMidYMid meet">

<g transform="translate(0.000000,1024.000000) scale(0.100000,-0.100000)"
fill="#000000" stroke="none">
<path d="M5020 8183 c-54 -16 -84 -46 -1459 -1422 -1562 -1565 -1457 -1450
-1455 -1591 1 -121 26 -163 189 -322 75 -73 711 -708 1413 -1410 1401 -1403
1303 -1313 1432 -1313 111 1 129 15 555 440 421 421 2220 2202 2357 2334 106
102 131 153 130 269 0 62 -4 83 -28 129 -24 44 -293 318 -1432 1458 -867 867
-1417 1410 -1440 1421 -52 24 -192 28 -262 7z m225 -701 c30 -19 530 -506 905
-882 113 -113 306 -305 430 -427 537 -530 838 -839 860 -883 31 -61 31 -141 0
-205 -18 -38 -231 -257 -944 -973 -958 -962 -1219 -1215 -1273 -1238 -42 -18
-125 -18 -166 0 -19 8 -480 460 -1124 1102 -1010 1008 -1093 1093 -1107 1138
-23 71 -20 129 8 184 26 50 476 501 1511 1517 619 608 665 652 707 670 49 21
156 19 193 -3z"/>
<path d="M5199 7294 c-1 -16 0 -303 1 -638 l2 -609 30 -25 c59 -50 75 -134 35
-193 -29 -44 -82 -79 -119 -79 -36 0 -114 54 -134 92 -29 57 -5 165 43 194 18
11 18 38 17 633 -1 390 -5 626 -11 632 -6 6 -26 -12 -57 -51 -26 -33 -65 -75
-87 -92 l-39 -31 0 -282 0 -281 35 -31 c45 -40 49 -95 9 -142 -85 -101 -245
23 -179 139 11 19 14 72 15 237 0 128 -4 214 -10 218 -5 3 -46 -30 -90 -75
l-80 -81 0 -97 c0 -53 3 -188 7 -299 l6 -201 43 -17 c47 -18 82 -54 117 -119
16 -31 22 -59 22 -116 0 -65 -4 -82 -30 -129 -20 -36 -45 -64 -74 -82 -111
-71 -226 -58 -318 36 -43 44 -53 62 -63 110 -14 70 -6 134 25 195 29 56 82
107 115 112 l25 3 3 230 c1 126 0 236 -3 244 -4 9 -61 -42 -173 -156 -92 -93
-302 -298 -467 -455 -165 -157 -419 -408 -565 -558 l-265 -272 -3 -59 -3 -59
66 -72 c37 -40 155 -161 263 -268 109 -107 408 -407 665 -666 258 -260 470
-467 472 -460 2 6 5 178 8 383 l4 371 -26 6 c-42 8 -98 62 -127 123 -84 170
29 370 209 373 143 1 267 -119 267 -259 0 -106 -72 -216 -159 -242 l-41 -12
-2 -441 -3 -441 50 -50 c28 -27 63 -67 79 -87 16 -21 32 -38 35 -38 4 0 12
163 18 363 l10 362 -24 31 c-32 43 -30 85 8 129 26 29 38 35 71 35 69 0 128
-47 128 -104 0 -22 -42 -85 -62 -94 -5 -2 -8 -192 -8 -423 l0 -419 63 -59 c34
-33 73 -78 87 -100 14 -22 28 -41 33 -41 4 0 8 271 8 603 1 331 4 670 8 752
l6 150 -39 35 c-33 30 -39 43 -43 85 -5 56 17 100 70 139 60 44 153 13 197
-67 34 -59 16 -132 -41 -166 l-31 -19 0 -761 c0 -419 3 -765 7 -769 3 -4 11 2
17 12 6 11 46 59 89 107 l79 87 1 417 1 417 -25 27 c-55 58 -58 105 -10 161
40 48 103 41 166 -18 32 -31 37 -93 10 -132 -15 -22 -17 -58 -14 -380 1 -195
5 -357 8 -360 3 -3 42 35 87 83 l81 88 -3 443 -2 444 -28 5 c-51 10 -96 50
-131 117 -30 56 -35 75 -34 130 0 83 26 142 85 196 57 52 103 68 184 61 115
-9 196 -80 224 -198 30 -122 -38 -265 -140 -298 l-35 -11 3 -382 c1 -210 4
-383 6 -385 1 -2 178 173 392 389 214 216 540 544 724 730 357 360 370 376
356 452 -7 34 -59 90 -444 475 -720 721 -1020 1013 -1032 1006 -6 -4 -10 -88
-10 -240 l0 -233 28 -10 c49 -17 98 -69 127 -133 24 -54 27 -71 23 -130 -8
-112 -67 -191 -169 -224 -120 -40 -255 24 -307 145 -51 120 23 307 135 340
l39 12 3 312 2 312 -85 77 c-46 42 -87 77 -90 77 -3 0 -6 -99 -6 -220 0 -202
2 -223 19 -248 35 -48 31 -100 -9 -146 -49 -55 -111 -56 -167 -4 -36 34 -32
107 7 146 l30 30 0 292 0 291 -32 27 c-18 15 -61 53 -95 86 l-63 59 -1 -29z
m-1202 -1304 c48 -29 77 -92 70 -151 -10 -83 -57 -129 -133 -129 -80 0 -154
89 -139 168 20 110 117 164 202 112z m2419 1 c97 -59 98 -193 2 -264 -58 -43
-135 -21 -185 53 -80 117 64 283 183 211z m-2226 -428 c29 -60 72 -141 98
-182 l46 -74 -32 -56 c-34 -57 -76 -144 -130 -263 -24 -53 -35 -68 -52 -68
-28 0 -80 28 -80 43 0 28 70 199 107 264 l41 71 -80 162 c-43 89 -78 164 -76
165 17 15 77 45 90 45 12 0 33 -33 68 -107z m1977 92 c69 -29 70 -23 -17 -194
l-79 -157 34 -70 c19 -38 54 -113 79 -166 41 -91 43 -98 27 -112 -24 -22 -78
-31 -95 -16 -8 6 -23 35 -32 63 -9 29 -43 104 -75 167 -33 63 -59 125 -59 137
0 13 11 51 24 86 30 81 135 277 147 277 5 0 26 -7 46 -15z m-2457 -63 l43 -38
-71 -100 c-39 -56 -91 -124 -116 -154 -54 -63 -55 -60 63 -158 172 -142 176
-147 163 -176 -12 -26 -86 -86 -107 -86 -6 0 -18 19 -25 43 -22 75 -40 97
-113 144 -90 58 -174 128 -182 152 -7 25 57 122 151 228 39 45 85 104 100 132
16 28 34 51 40 51 6 0 31 -17 54 -38z m2877 16 c30 -28 29 -59 -2 -88 -14 -13
-25 -29 -25 -35 0 -7 37 -36 83 -65 272 -175 267 -171 257 -190 -6 -10 -47
-52 -92 -92 -160 -142 -195 -179 -213 -218 -10 -23 -25 -40 -34 -40 -20 0
-101 77 -101 96 0 22 65 88 144 148 39 30 82 66 96 81 l25 27 -30 25 c-16 14
-72 53 -124 87 -52 33 -107 78 -124 98 l-29 37 46 60 c41 53 81 91 95 91 3 0
15 -10 28 -22z m-1015 -87 c103 -46 221 -101 248 -114 24 -12 25 -16 24 -102
l-2 -89 -78 -27 c-44 -14 -119 -47 -168 -73 -49 -25 -93 -46 -97 -46 -9 0 -32
42 -43 77 -7 20 5 28 133 93 78 38 141 73 141 76 0 3 -65 37 -145 75 -139 67
-144 70 -135 93 14 39 34 66 46 66 7 0 41 -13 76 -29z m-1001 -20 c52 -15 118
-34 147 -41 62 -14 82 -31 82 -70 0 -42 -32 -44 -162 -11 -147 38 -212 63
-216 82 -3 16 33 69 47 69 5 0 51 -13 102 -29z m534 -37 c72 -37 162 -83 200
-102 93 -46 105 -58 105 -102 0 -46 -24 -69 -110 -105 -36 -15 -127 -56 -202
-91 -76 -35 -145 -64 -153 -64 -21 0 -37 36 -33 78 3 36 6 39 85 78 45 22 121
54 168 70 l86 29 -27 22 c-15 12 -66 38 -113 58 -168 71 -196 87 -199 118 -4
34 22 77 46 77 9 0 76 -30 147 -66z m-305 -218 c21 -57 -3 -75 -130 -96 -36
-6 -98 -18 -139 -27 l-73 -17 -19 23 c-22 27 -25 64 -6 79 19 16 234 60 300
61 52 1 58 -1 67 -23z m-802 -472 c42 -32 62 -73 62 -125 0 -56 -31 -103 -84
-128 -51 -25 -55 -25 -107 -5 -135 55 -128 239 11 288 27 9 85 -5 118 -30z
m2444 -12 c37 -35 42 -45 46 -94 5 -66 -14 -110 -61 -138 -42 -26 -83 -25
-137 3 -76 38 -101 122 -59 196 27 50 64 70 122 71 42 0 53 -5 89 -38z"/>
<path d="M4488 6089 c-38 -14 -68 -67 -68 -119 0 -34 6 -48 34 -76 28 -28 42
-34 75 -34 48 0 97 38 110 85 24 88 -68 175 -151 144z"/>
<path d="M5704 6091 c-30 -13 -62 -57 -70 -95 -19 -105 112 -181 186 -107 34
33 45 68 36 114 -12 65 -95 112 -152 88z"/>
<path d="M4457 4760 c-62 -54 -60 -131 5 -185 42 -35 88 -33 133 6 84 74 51
194 -57 206 -40 5 -49 2 -81 -27z"/>
<path d="M5692 4771 c-42 -27 -67 -78 -58 -123 8 -42 60 -95 101 -103 69 -13
144 68 131 141 -16 84 -105 127 -174 85z"/>
<path d="M6939 7380 c-26 -27 -50 -61 -53 -75 -8 -32 14 -75 65 -126 31 -31
46 -39 76 -39 30 0 44 8 78 44 58 60 68 92 45 144 -23 50 -91 102 -133 102
-24 0 -41 -11 -78 -50z"/>
<path d="M3189 7383 c-23 -21 -48 -53 -56 -71 -12 -29 -11 -36 6 -70 24 -46
94 -112 120 -112 30 0 84 43 114 92 26 42 28 50 17 81 -6 20 -31 54 -55 76
-58 54 -90 54 -146 4z"/>
<path d="M6961 3188 c-19 -13 -46 -44 -59 -71 -24 -46 -24 -48 -8 -91 10 -26
36 -62 62 -86 40 -36 50 -41 77 -36 54 11 127 101 127 157 0 34 -30 88 -64
114 -48 36 -94 41 -135 13z"/>
<path d="M3202 3185 c-31 -23 -72 -97 -72 -132 0 -54 91 -153 141 -153 24 0
104 74 119 110 18 44 -1 101 -51 151 -32 32 -46 39 -77 39 -21 0 -47 -7 -60
-15z"/>
</g>
</svg>
