<svg width="26" height="24" viewBox="0 0 26 24" fill="none" xmlns="http://www.w3.org/2000/svg">
<circle cx="18.2079" cy="7.44815" r="7.44815" fill="#14B855"/>
<circle cx="12.413" cy="16.5522" r="7.44815" fill="#5867DD"/>
<path fill-rule="evenodd" clip-rule="evenodd" d="M10.9785 9.24045C11.4433 9.14964 11.9236 9.10205 12.415 9.10205C15.9099 9.10205 18.8426 11.5092 19.6456 14.756C19.1808 14.8468 18.7005 14.8944 18.2091 14.8944C14.7142 14.8944 11.7815 12.4873 10.9785 9.24045Z" fill="#3ADADA"/>
<circle cx="7.44815" cy="7.44815" r="7.44815" fill="#E42F2F" fill-opacity="0.9"/>
<path fill-rule="evenodd" clip-rule="evenodd" d="M12.8265 12.5997C14.108 11.2619 14.8953 9.44703 14.8953 7.44828C14.8953 5.44952 14.108 3.63465 12.8265 2.29688C11.5451 3.63465 10.7578 5.44952 10.7578 7.44828C10.7578 9.44703 11.5451 11.2619 12.8265 12.5997Z" fill="#FFC701"/>
<path fill-rule="evenodd" clip-rule="evenodd" d="M14.6292 9.43651C13.7586 12.5837 10.8741 14.8944 7.4499 14.8944C6.67909 14.8944 5.93563 14.7773 5.23633 14.56C6.10689 11.4128 8.99139 9.10205 12.4156 9.10205C13.1864 9.10205 13.9299 9.21914 14.6292 9.43651Z" fill="#DF31DF"/>
</svg>
