<svg width="37" height="30" viewBox="0 0 37 30" fill="none" xmlns="http://www.w3.org/2000/svg">
<path d="M36.3898 23.514C36.5218 23.7927 36.5878 24.064 36.5878 24.328C36.5878 24.812 36.3898 25.2227 35.9938 25.56C35.6125 25.8973 35.1725 26.066 34.6738 26.066C34.3365 26.066 34.0285 25.978 33.7498 25.802C33.4712 25.626 33.2512 25.362 33.0898 25.01L32.0998 22.788H24.9718L23.9598 25.01C23.7985 25.362 23.5712 25.626 23.2778 25.802C22.9992 25.978 22.6912 26.066 22.3538 26.066C21.8552 26.066 21.4005 25.8973 20.9898 25.56C20.5938 25.2227 20.3958 24.812 20.3958 24.328C20.3958 24.064 20.4618 23.7927 20.5938 23.514L26.4018 11.59C26.5925 11.194 26.8712 10.8933 27.2378 10.688C27.6192 10.468 28.0372 10.358 28.4918 10.358C28.9318 10.358 29.3425 10.468 29.7238 10.688C30.1052 10.8933 30.3912 11.194 30.5818 11.59L36.3898 23.514ZM26.3358 19.752H30.7358L28.5358 14.846L26.3358 19.752Z" fill="#D3E2FB"/>
<mask id="path-2-outside-1_5945_4540" maskUnits="userSpaceOnUse" x="0.632812" y="0" width="29" height="30" fill="black">
<rect fill="white" x="0.632812" width="29" height="30"/>
<path d="M26.1378 23.536C26.2658 23.8133 26.3298 24.0907 26.3298 24.368C26.3298 24.8587 26.1271 25.2747 25.7218 25.616C25.3378 25.9573 24.8898 26.128 24.3778 26.128C24.0365 26.128 23.7165 26.0427 23.4178 25.872C23.1191 25.68 22.8845 25.392 22.7138 25.008L20.7938 20.72H9.52981L7.60981 25.008C7.43915 25.392 7.20448 25.68 6.90581 25.872C6.60715 26.0427 6.27648 26.128 5.91381 26.128C5.42315 26.128 4.97515 25.9573 4.56981 25.616C4.16448 25.2747 3.96181 24.8587 3.96181 24.368C3.96181 24.0907 4.02581 23.8133 4.15381 23.536L12.9858 4.56C13.1778 4.13333 13.4658 3.81333 13.8498 3.6C14.2551 3.36533 14.6818 3.248 15.1298 3.248C15.5778 3.248 15.9938 3.36533 16.3778 3.6C16.7831 3.81333 17.0818 4.13333 17.2738 4.56L26.1378 23.536ZM10.9378 17.52H19.3858L15.1618 8.016L10.9378 17.52Z"/>
</mask>
<path d="M26.1378 23.536C26.2658 23.8133 26.3298 24.0907 26.3298 24.368C26.3298 24.8587 26.1271 25.2747 25.7218 25.616C25.3378 25.9573 24.8898 26.128 24.3778 26.128C24.0365 26.128 23.7165 26.0427 23.4178 25.872C23.1191 25.68 22.8845 25.392 22.7138 25.008L20.7938 20.72H9.52981L7.60981 25.008C7.43915 25.392 7.20448 25.68 6.90581 25.872C6.60715 26.0427 6.27648 26.128 5.91381 26.128C5.42315 26.128 4.97515 25.9573 4.56981 25.616C4.16448 25.2747 3.96181 24.8587 3.96181 24.368C3.96181 24.0907 4.02581 23.8133 4.15381 23.536L12.9858 4.56C13.1778 4.13333 13.4658 3.81333 13.8498 3.6C14.2551 3.36533 14.6818 3.248 15.1298 3.248C15.5778 3.248 15.9938 3.36533 16.3778 3.6C16.7831 3.81333 17.0818 4.13333 17.2738 4.56L26.1378 23.536ZM10.9378 17.52H19.3858L15.1618 8.016L10.9378 17.52Z" fill="#D3E2FB"/>
<path d="M26.1378 23.536L28.8617 22.2788L28.8559 22.2663L26.1378 23.536ZM25.7218 25.616L23.7894 23.3213L23.7587 23.3471L23.7287 23.3738L25.7218 25.616ZM23.4178 25.872L21.7955 28.3955L21.8614 28.4379L21.9294 28.4767L23.4178 25.872ZM22.7138 25.008L25.4553 23.7896L25.4519 23.782L22.7138 25.008ZM20.7938 20.72L23.5319 19.494L22.7375 17.72H20.7938V20.72ZM9.52981 20.72V17.72H7.58609L6.79176 19.494L9.52981 20.72ZM7.60981 25.008L4.87175 23.782L4.86838 23.7896L7.60981 25.008ZM6.90581 25.872L8.39423 28.4767L8.46222 28.4379L8.52809 28.3955L6.90581 25.872ZM4.56981 25.616L2.63741 27.9107H2.63741L4.56981 25.616ZM4.15381 23.536L1.43396 22.2701L1.42993 22.2788L4.15381 23.536ZM12.9858 4.56L15.7057 5.82589L15.7137 5.80854L15.7216 5.79109L12.9858 4.56ZM13.8498 3.6L15.3067 6.22247L15.3299 6.20958L15.3529 6.19628L13.8498 3.6ZM16.3778 3.6L14.8135 6.15985L14.8955 6.20998L14.9806 6.25475L16.3778 3.6ZM17.2738 4.56L14.538 5.79109L14.5468 5.81044L14.5557 5.82966L17.2738 4.56ZM10.9378 17.52L8.19638 16.3016L6.32153 20.52H10.9378V17.52ZM19.3858 17.52V20.52H24.0021L22.1272 16.3016L19.3858 17.52ZM15.1618 8.016L17.9032 6.79758L15.1618 0.629355L12.4204 6.79758L15.1618 8.016ZM23.4139 24.7932C23.3786 24.7167 23.3298 24.5671 23.3298 24.368H29.3298C29.3298 23.6142 29.153 22.91 28.8617 22.2788L23.4139 24.7932ZM23.3298 24.368C23.3298 24.1862 23.3708 23.96 23.4808 23.7341C23.5879 23.5144 23.7179 23.3815 23.7894 23.3213L27.6542 27.9107C28.6749 27.0512 29.3298 25.821 29.3298 24.368H23.3298ZM23.7287 23.3738C23.7889 23.3203 23.8903 23.2497 24.0298 23.1965C24.1695 23.1433 24.2938 23.128 24.3778 23.128V29.128C25.6274 29.128 26.7839 28.6858 27.7149 27.8582L23.7287 23.3738ZM24.3778 23.128C24.4601 23.128 24.555 23.1387 24.6548 23.1653C24.7545 23.1919 24.8395 23.2291 24.9062 23.2673L21.9294 28.4767C22.6777 28.9043 23.5101 29.128 24.3778 29.128V23.128ZM25.0401 23.3485C25.169 23.4314 25.2703 23.5271 25.3435 23.617C25.4144 23.704 25.4465 23.7699 25.4552 23.7896L19.9724 26.2264C20.3364 27.0454 20.9199 27.8326 21.7955 28.3955L25.0401 23.3485ZM25.4519 23.782L23.5319 19.494L18.0558 21.946L19.9758 26.234L25.4519 23.782ZM20.7938 17.72H9.52981V23.72H20.7938V17.72ZM6.79176 19.494L4.87176 23.782L10.3479 26.234L12.2679 21.946L6.79176 19.494ZM4.86838 23.7896C4.87715 23.7699 4.90919 23.704 4.98011 23.617C5.05332 23.5271 5.15458 23.4314 5.28354 23.3485L8.52809 28.3955C9.40369 27.8326 9.98725 27.0454 10.3512 26.2264L4.86838 23.7896ZM5.4174 23.2673C5.49816 23.2211 5.58909 23.1837 5.68418 23.1592C5.77839 23.1349 5.85787 23.128 5.91381 23.128V29.128C6.76913 29.128 7.61738 28.9206 8.39423 28.4767L5.4174 23.2673ZM5.91381 23.128C6.02473 23.128 6.15265 23.1489 6.2778 23.1965C6.3998 23.243 6.47432 23.2978 6.50222 23.3213L2.63741 27.9107C3.53704 28.6683 4.65742 29.128 5.91381 29.128V23.128ZM6.50222 23.3213C6.57377 23.3815 6.70377 23.5144 6.81078 23.7341C6.92082 23.96 6.96181 24.1862 6.96181 24.368H0.961812C0.961812 25.821 1.6167 27.0512 2.63741 27.9107L6.50222 23.3213ZM6.96181 24.368C6.96181 24.5671 6.91298 24.7167 6.87769 24.7932L1.42993 22.2788C1.13864 22.91 0.961812 23.6142 0.961812 24.368H6.96181ZM6.87365 24.8019L15.7057 5.82589L10.266 3.29411L1.43398 22.2701L6.87365 24.8019ZM15.7216 5.79109C15.7011 5.8365 15.6567 5.91689 15.5757 6.00689C15.4933 6.09844 15.3987 6.17141 15.3067 6.22247L12.3929 0.977526C11.4059 1.52584 10.6889 2.35363 10.25 3.32891L15.7216 5.79109ZM15.3529 6.19628C15.3463 6.2001 15.3176 6.21534 15.2693 6.22862C15.2202 6.2421 15.1712 6.248 15.1298 6.248V0.247999C14.1295 0.247999 13.1872 0.517115 12.3467 1.00372L15.3529 6.19628ZM15.1298 6.248C15.0886 6.248 15.03 6.24212 14.9634 6.22335C14.897 6.2046 14.8457 6.17952 14.8135 6.15985L17.9422 1.04015C17.0894 0.519016 16.1325 0.247999 15.1298 0.247999V6.248ZM14.9806 6.25475C14.8997 6.21219 14.8032 6.14398 14.7126 6.04695C14.6226 5.95051 14.5677 5.85689 14.538 5.79109L20.0096 3.32891C19.5492 2.30579 18.7866 1.47762 17.7751 0.945243L14.9806 6.25475ZM14.5557 5.82966L23.4197 24.8057L28.8559 22.2663L19.9919 3.29034L14.5557 5.82966ZM10.9378 20.52H19.3858V14.52H10.9378V20.52ZM22.1272 16.3016L17.9032 6.79758L12.4204 9.23441L16.6444 18.7384L22.1272 16.3016ZM12.4204 6.79758L8.19638 16.3016L13.6792 18.7384L17.9032 9.23441L12.4204 6.79758Z" fill="white" mask="url(#path-2-outside-1_5945_4540)"/>
</svg>
